<?xml version="1.0" encoding="UTF-8" standalone="no"?>
<!-- Created with Inkscape (http://www.inkscape.org/) -->

<svg
   width="295mm"
   height="145mm"
   viewBox="0 0 295 145"
   version="1.1"
   id="svg1"
   inkscape:version="1.4 (86a8ad7, 2024-10-11)"
   sodipodi:docname="logo.svg"
   xmlns:inkscape="http://www.inkscape.org/namespaces/inkscape"
   xmlns:sodipodi="http://sodipodi.sourceforge.net/DTD/sodipodi-0.dtd"
   xmlns="http://www.w3.org/2000/svg"
   xmlns:svg="http://www.w3.org/2000/svg">
  <sodipodi:namedview
     id="namedview1"
     pagecolor="#ffffff"
     bordercolor="#000000"
     borderopacity="0.25"
     inkscape:showpageshadow="2"
     inkscape:pageopacity="0.0"
     inkscape:pagecheckerboard="0"
     inkscape:deskcolor="#d1d1d1"
     inkscape:document-units="mm"
     inkscape:zoom="0.72604517"
     inkscape:cx="397.3582"
     inkscape:cy="452.45119"
     inkscape:window-width="1920"
     inkscape:window-height="1017"
     inkscape:window-x="-8"
     inkscape:window-y="-8"
     inkscape:window-maximized="1"
     inkscape:current-layer="layer1" />
  <defs
     id="defs1">
    <rect
       x="139.05821"
       y="664.76611"
       width="855.82983"
       height="106.27213"
       id="rect30" />
    <rect
       x="32.786083"
       y="581.10504"
       width="1054.8074"
       height="107.40268"
       id="rect28" />
  </defs>
  <g
     inkscape:label="Capa 1"
     inkscape:groupmode="layer"
     id="layer1">
    <path
       id="path2490"
       d="m 138.20563,3.1106884 c 7.14484,-0.09655 14.28968,0.128736 21.43453,0.16092 15.8667,0.128735 31.7334,0.321839 47.6001,0.354023 7.40232,0.225288 14.80463,0.128736 22.20695,0.225288 7.40231,0.06437 14.80463,0.128736 22.20695,0.193104 2.96092,0.16092 5.92185,0.354024 8.75404,1.255175 2.57472,1.062072 5.14943,2.413799 6.95174,4.570125 1.19081,1.4482796 2.44598,2.8965586 3.08966,4.6988616 1.51265,4.119549 1.8023,8.754042 0.54713,12.970143 -0.77242,2.735639 -2.57472,4.988517 -3.63679,7.59542 -5.14944,8.754043 -9.97704,17.669005 -15.12647,26.423047 -1.51265,2.574719 -2.86438,5.213806 -4.53794,7.691973 -3.28277,5.696564 -6.56554,11.425312 -9.88049,17.154061 -0.70804,1.126439 -0.96552,2.445982 -1.44827,3.668974 -0.99771,2.639086 -0.96552,5.471276 -0.86897,8.239098 0.8046,4.119549 4.08736,7.273579 7.78852,9.011519 4.57013,2.31724 9.78393,2.54253 14.80463,2.89655 3.76553,0.51495 7.53105,0.74024 11.29658,1.223 6.11495,0.74023 12.26209,1.1908 18.34487,2.09195 -1.93104,0.19311 -3.89426,0.0322 -5.8253,0.0966 -14.48279,-0.0644 -28.96559,-0.0644 -43.44838,-0.22528 -11.36094,-0.0322 -22.75407,0 -34.11502,0 -3.92644,0.22528 -7.94944,0.41839 -11.8437,-0.4184 -5.34254,-1.35172 -10.68508,-3.86207 -14.16095,-8.30346 -2.18851,-2.67127 -3.02529,-6.211511 -2.96093,-9.623013 0.0322,-1.641382 0.6115,-3.218398 0.6115,-4.891964 -2.63909,3.443685 -5.37473,6.887371 -8.59312,9.816113 -7.56324,7.048294 -17.05751,12.262104 -27.3242,13.903484 -11.71497,2.18851 -24.65293,-1.35173 -32.79548,-10.23451 -5.31036,-5.535642 -8.432202,-12.841406 -9.590826,-20.340273 -1.480463,-10.137954 0.450576,-20.629932 4.827596,-29.83455 6.4368,-13.613824 18.02303,-24.974769 32.21617,-30.252942 9.46209,-3.540238 20.2759,-4.087365 29.70581,-0.225288 4.34484,1.866671 8.4322,4.473574 11.6506,7.981627 7.75634,8.013811 10.94255,19.632229 10.13795,30.639149 -0.0644,2.73564 -0.74023,5.374726 -1.12644,8.07818 8.11037,-13.2598 15.86671,-26.777072 23.97707,-40.036872 2.22069,-4.634493 2.34943,-10.427609 -0.45058,-14.804631 -1.35172,-2.542534 -3.70115,-4.377021 -6.2115,-5.6643796 -3.47587,-1.448279 -7.27358,-1.641383 -10.97474,-1.770119 -4.15173,-0.257472 -8.33565,-0.740232 -12.48739,-0.997703 -6.30806,-0.354024 -12.61612,-1.062072 -18.92418,-1.448279 -6.59771,-0.418392 -13.13106,-1.094256 -19.72878,-1.480464 -0.70804,-0.06437 -1.48046,0.03218 -2.09195,-0.386207 z"
       style="fill:#8f8f8c;fill-opacity:1;stroke:#000000;stroke-width:0.514944;stroke-miterlimit:4;stroke-dasharray:none;stroke-opacity:1"
       inkscape:connector-curvature="0" />
    <path
       id="path2492"
       d="m 5.0142344,3.7704594 c -0.328816,0.01145 -0.657359,0.02825 -0.985634,0.05029 1.718458,0.534767 3.534199,0.561647 5.296846,0.869628 5.3994316,0.539263 10.7665616,1.363344 16.1685976,1.878729 5.072357,0.722716 10.20518,1.087779 15.208588,2.239806 1.070201,0.218134 2.107314,0.564793 3.112301,0.988697 2.271458,0.8885736 4.523239,2.0608276 6.135824,3.9388326 0.984814,1.119344 1.789049,2.425064 2.150582,3.882947 0.602271,2.181032 0.495778,4.505279 0.01213,6.698532 -0.470089,1.419565 -1.101165,2.782564 -1.772352,4.116433 -8.952988,15.817526 -17.913816,31.630626 -26.852375,47.456307 -1.469228,2.637226 -3.083848,5.197565 -4.371328,7.932286 -0.885097,1.86071 -1.665474,3.772204 -2.317417,5.727178 -0.852722,2.333776 -1.05482,4.833541 -1.235461,7.292384 -0.06411,3.794201 1.257075,7.613401 3.743222,10.492111 1.307741,1.44644 2.81567,2.7466 4.581228,3.60114 1.999818,1.01586 4.187025,1.60894 6.385924,2.00572 1.139571,0.16811 2.292166,0.2346 3.441182,0.3016 3.612929,0.19422 7.232796,0.0963 10.849008,0.13225 8.128566,-0.0281 16.257236,-0.0532 24.38576,-0.0752 4.895782,-0.0745 9.792136,-0.11076 14.688349,-0.14339 11.494016,-0.0623 22.988921,-0.0678 34.481591,-0.27253 0.35265,-0.0427 0.6903,-0.18944 0.96552,-0.41236 -1.31125,-0.5058 -2.73772,-0.50169 -4.10202,-0.77695 -7.40686,-1.21077 -14.83938,-2.25804 -22.260458,-3.37514 -1.891603,-0.365 -3.695103,-1.06363 -5.546831,-1.57541 -2.570342,-1.01408 -5.135601,-2.21532 -7.173243,-4.12404 -1.620247,-1.50543 -2.777911,-3.51347 -3.198366,-5.690343 -0.44906,-2.144203 -0.32035,-4.404628 0.322625,-6.495541 0.834605,-2.415311 2.473319,-4.424084 3.644063,-6.670584 4.623901,-8.198032 9.224254,-16.409292 13.838319,-24.61285 3.571936,-6.323425 7.133591,-12.652939 10.759151,-18.945811 1.57902,-2.70069 3.17274,-5.409813 4.33633,-8.322305 1.21164,-2.924358 2.09187,-6.00436 2.42712,-9.157436 0.19732,-2.592974 -0.003,-5.238619 -0.77084,-7.730818 -0.63659,-1.974965 -1.66447,-3.865019 -3.21342,-5.2719616 -2.39813,-2.19435 -5.37634,-3.716211 -8.525232,-4.495332 C 98.500062,4.9497274 97.351361,4.7383264 96.194717,4.6806694 82.633305,4.4356554 69.070339,4.2824884 55.508895,4.0415824 40.856044,4.0327824 26.203939,3.8606224 11.551217,3.8190454 9.3723154,3.8085154 7.1929714,3.7121234 5.0142344,3.7704554 Z"
       style="fill:#8f8f8c;fill-opacity:1;stroke:#000000;stroke-width:0.514944;stroke-miterlimit:4;stroke-dasharray:none;stroke-opacity:1"
       inkscape:connector-curvature="0" />
    <text
       xml:space="preserve"
       style="font-style:italic;font-variant:normal;font-weight:900;font-stretch:normal;font-size:25.4px;font-family:Montserrat;-inkscape-font-specification:'Montserrat, Heavy Italic';font-variant-ligatures:normal;font-variant-caps:normal;font-variant-numeric:normal;font-variant-east-asian:normal;text-align:start;writing-mode:lr-tb;direction:ltr;text-anchor:start;fill:#006d9a;fill-opacity:1;stroke-width:1.165;stroke-dasharray:none"
       x="15.913063"
       y="135.75078"
       id="text29"><tspan
         sodipodi:role="line"
         id="tspan29"
         style="font-style:italic;font-variant:normal;font-weight:900;font-stretch:normal;font-size:25.4px;font-family:Montserrat;-inkscape-font-specification:'Montserrat, Heavy Italic';font-variant-ligatures:normal;font-variant-caps:normal;font-variant-numeric:normal;font-variant-east-asian:normal;fill:#006d9a;stroke-width:1.165;fill-opacity:1"
         x="15.913063"
         y="135.75078">ANFRA PACKAGING</tspan></text>
    <text
       xml:space="preserve"
       transform="matrix(0.26458329,0,0,0.26458329,-3.5301176,-1.5479966)"
       id="text30"
       style="font-style:italic;font-variant:normal;font-weight:900;font-stretch:normal;font-size:96px;font-family:Montserrat;-inkscape-font-specification:'Montserrat, Heavy Italic';font-variant-ligatures:normal;font-variant-caps:normal;font-variant-numeric:normal;font-variant-east-asian:normal;text-align:start;writing-mode:lr-tb;direction:ltr;white-space:pre;shape-inside:url(#rect30);display:inline;opacity:1;fill:#8f8f8c;fill-opacity:1;stroke-width:4.40315;stroke-dasharray:none" />
    <text
       xml:space="preserve"
       style="font-style:italic;font-variant:normal;font-weight:250;font-stretch:normal;font-size:11.2889px;font-family:Montserrat;-inkscape-font-specification:'Montserrat,  weight=250 Italic';font-variant-ligatures:normal;font-variant-caps:normal;font-variant-numeric:normal;font-variant-east-asian:normal;text-align:start;writing-mode:lr-tb;direction:ltr;text-anchor:start;display:inline;opacity:1;fill:#8f8f8c;fill-opacity:1;stroke-width:1.165;stroke-dasharray:none"
       x="36.851871"
       y="197.3707"
       id="text31"><tspan
         sodipodi:role="line"
         id="tspan31"
         x="36.851871"
         y="197.3707"
         style="stroke-width:1.165" /></text>
  </g>
</svg>
